<?xml version="1.0" encoding="utf-8"?>
<!-- Generator: Adobe Illustrator 22.0.1, SVG Export Plug-In . SVG Version: 6.00 Build 0)  -->
<svg version="1.1" id="Layer_1" xmlns="http://www.w3.org/2000/svg" xmlns:xlink="http://www.w3.org/1999/xlink" x="0px" y="0px"
	 viewBox="0 0 256 256" style="enable-background:new 0 0 256 256;" xml:space="preserve">
<style type="text/css">
	.st0{fill:none;stroke:#FFFFFF;stroke-width:20;stroke-miterlimit:10;}
</style>
<g>
	<path class="st0" d="M102.1,24.4c1.2-11.1,7.9-17,19-17.1c2.3,0,4.6-0.1,6.9-0.1c2.3,0.1,4.6,0.1,6.9,0.2c11.2,0.1,17.8,6,19,17.1
		c0,5.9,0,11.7,0,17.6c0,5,0,10.1,0,15.1c0,0.6,0,1.3,0,1.9c0,5.7,0,11.3,0,17c0,5.9,0,11.8,0,17.7c-0.4,8.5-0.4,8.5,8.1,8.2
		c0.2,0,0.4-0.1,0.6-0.1c5.7,0,11.3,0,17,0c5.7,0,11.3,0,17,0c5.9,0,11.8,0,17.7,0c5.7,0,11.3,0,17,0c10.4,0.8,18,7.9,17.1,20.2
		c-0.1,1.9,0.1,3.8,0.2,5.7c-0.1,2.9-0.2,5.9-0.1,8.8c0.2,6-2.4,10.8-7.2,13.9c-2.8,1.9-6.6,2.4-9.9,3.6c-5.7,0-11.4,0-17.1,0.1
		c-5.9,0-11.7,0-17.6,0c-5.7,0-11.4,0-17.1,0c-5.7,0-11.3,0-17,0c-9.2-0.4-9.2-0.4-8.7,8.3c0,5.7,0,11.3,0,17c0,5.9,0,11.8,0,17.7
		c0,5.7,0,11.3,0,17c0,5.9,0,11.8,0,17.7c-0.3,6.6-3.8,11.3-9,14.9c-1,0.4-2.1,0.9-3.1,1.3c-4.6,0.3-9.2,0.5-13.8,0.8
		c-2.3,0-4.6-0.1-6.9-0.1c-11.1-0.1-17.8-6-19.1-16.9c0-5.9,0-11.8,0-17.6c0-5.7,0-11.4,0-17c0-5.9,0-11.7,0-17.6c0-5.7,0-11.4,0-17
		c-0.1-10.6,2.1-8.5-8.2-8.5c-0.2,0-0.4,0.2-0.6,0.2c-5.7,0-11.3,0-17,0c-5.7,0.1-11.3,0.1-17,0.2c-0.6,0-1.3,0-1.9-0.1
		c-5.3,0-10.5,0-15.8,0.1c-5.7,0-11.3,0-17,0c-2.1-0.5-4.2-0.9-6.3-1.6c-6-1.8-10.6-8.1-10.8-14.4c-0.1-3.6-0.2-7.1-0.2-10.7
		c0.3-4.6,0.5-9.2,0.8-13.9c0.5-1,0.9-2.1,1.4-3.1c3.5-5.6,8.7-8.2,15.1-8.9c5.7,0,11.3,0,17,0c5.9,0,11.8,0,17.6,0
		c5.7,0,11.4,0,17,0c5.7,0,11.3,0,17,0c9.2,0.5,9.2,0.5,8.7-8.2c0-5.9,0-11.7,0-17.6c0-5.7,0-11.4,0-17c0-5.7,0-11.3,0-17
		C102.1,36.2,102.1,30.3,102.1,24.4z"/>
</g>
</svg>
