<?xml version="1.0" encoding="utf-8"?>
<!-- Generator: Adobe Illustrator 22.0.1, SVG Export Plug-In . SVG Version: 6.00 Build 0)  -->
<svg version="1.1" id="Layer_1" xmlns="http://www.w3.org/2000/svg" xmlns:xlink="http://www.w3.org/1999/xlink" x="0px" y="0px"
	 viewBox="0 0 271.5 271.5" style="enable-background:new 0 0 271.5 271.5;" xml:space="preserve">
<style type="text/css">
	.st0{fill:none;stroke:#FFFFFF;stroke-width:20;stroke-miterlimit:10;}
</style>
<g>
	<path class="st0" d="M117.3,44.5c23.7,14.1,47.4,28.2,71.2,42.2l17.2,10.2c9.4,5.7,19,11.3,28.5,16.8c4.9,2.8,9,6.2,11.4,11.5
		c4.8,10.5,2.3,23.3-7.8,30.1c-7.9,5.3-16.2,9.8-24.3,14.7c-34.6,20.4-69.1,40.8-103.8,61.2c-15.9,9.4-31.7,18.9-47.7,28.3
		c-5,2.9-10.1,4.9-16,4.7c-11.3-0.3-21.9-10.4-22.3-21.6c-0.1-3.5-0.1-7-0.1-10.5c0-32,0-63.8,0-95.6l0,0c0-35.2,0.1-70.4,0-105.6
		c0-19.5,19.5-28.1,34-21.3c7.1,3.3,13.8,7.8,20.6,11.8L117.3,44.5z"/>
</g>
</svg>
